<?xml version="1.0" encoding="UTF-8"?>
<svg xmlns="http://www.w3.org/2000/svg" xmlns:xlink="http://www.w3.org/1999/xlink" viewBox="0 0 256 256">
  <defs>
    <style>
      .cls-1 {
        fill: none;
      }

      .cls-2 {
        fill: url(#linear-gradient);
        opacity: .23;
      }

      .cls-3 {
        clip-path: url(#clippath);
      }

      .cls-4 {
        fill: #fff;
      }

      .cls-5 {
        fill: #191919;
      }

      .cls-6 {
        fill: url(#linear-gradient-17);
        opacity: .38;
      }

      .cls-7 {
        fill: url(#linear-gradient-13);
      }

      .cls-7, .cls-8 {
        opacity: .64;
      }

      .cls-8 {
        fill: url(#linear-gradient-16);
      }

      .cls-9 {
        fill: url(#linear-gradient-23);
        opacity: .62;
      }

      .cls-10 {
        fill: url(#linear-gradient-12);
      }

      .cls-10, .cls-11 {
        opacity: .3;
      }

      .cls-12 {
        fill: url(#linear-gradient-18);
        opacity: .45;
      }

      .cls-13 {
        fill: url(#linear-gradient-29);
        opacity: .47;
      }

      .cls-14 {
        fill: url(#linear-gradient-28);
      }

      .cls-14, .cls-15 {
        opacity: .46;
      }

      .cls-16 {
        fill: url(#linear-gradient-22);
        opacity: .2;
      }

      .cls-17 {
        fill: url(#linear-gradient-25);
        opacity: .99;
      }

      .cls-18 {
        fill: url(#linear-gradient-15);
      }

      .cls-18, .cls-19 {
        opacity: .81;
      }

      .cls-19 {
        fill: url(#linear-gradient-20);
      }

      .cls-20 {
        fill: url(#linear-gradient-21);
        opacity: .7;
      }

      .cls-21 {
        fill: url(#linear-gradient-30);
        opacity: .71;
      }

      .cls-22 {
        fill: url(#linear-gradient-14);
        opacity: .52;
      }

      .cls-23 {
        fill: url(#linear-gradient-27);
      }

      .cls-23, .cls-24 {
        opacity: .9;
      }

      .cls-24 {
        fill: url(#linear-gradient-11);
      }

      .cls-25 {
        fill: url(#linear-gradient-24);
        opacity: .83;
      }

      .cls-26 {
        fill: url(#linear-gradient-19);
        opacity: .82;
      }

      .cls-27 {
        fill: url(#linear-gradient-26);
        opacity: .86;
      }

      .cls-28 {
        fill: url(#linear-gradient-10);
      }

      .cls-29 {
        fill: url(#linear-gradient-3);
        opacity: .34;
      }

      .cls-30 {
        fill: url(#linear-gradient-2);
        opacity: .32;
      }

      .cls-15 {
        fill: url(#linear-gradient-9);
      }

      .cls-31 {
        fill: url(#linear-gradient-7);
        opacity: .27;
      }

      .cls-32 {
        fill: url(#linear-gradient-8);
        opacity: .69;
      }

      .cls-33 {
        fill: url(#linear-gradient-6);
        opacity: .59;
      }

      .cls-34 {
        fill: url(#linear-gradient-4);
        opacity: .35;
      }

      .cls-35 {
        fill: url(#linear-gradient-5);
        opacity: .74;
      }
    </style>
    <clipPath id="clippath">
      <rect class="cls-1" x="0" y="0" width="256" height="256"/>
    </clipPath>
    <linearGradient id="linear-gradient" x1="-1874.31" y1="1293.75" x2="4563.81" y2="-3025.24" gradientUnits="userSpaceOnUse">
      <stop offset=".07" stop-color="#cfcfcf"/>
      <stop offset=".27" stop-color="#a9a9a9"/>
      <stop offset=".71" stop-color="#4c4c4c"/>
      <stop offset="1" stop-color="#0d0d0d"/>
    </linearGradient>
    <linearGradient id="linear-gradient-2" x1="-2096.56" y1="1590.48" x2="4341.59" y2="-2728.53" xlink:href="#linear-gradient"/>
    <linearGradient id="linear-gradient-3" x1="-2085.22" y1="1530.54" x2="4352.97" y2="-2788.48" xlink:href="#linear-gradient"/>
    <linearGradient id="linear-gradient-4" x1="-2265.35" y1="1755.67" x2="4172.66" y2="-2563.24" xlink:href="#linear-gradient"/>
    <linearGradient id="linear-gradient-5" x1="-2169.98" y1="1854.86" x2="4268.17" y2="-2464.15" xlink:href="#linear-gradient"/>
    <linearGradient id="linear-gradient-6" x1="-881.75" y1="620.4" x2="1959.67" y2="-1285.75" xlink:href="#linear-gradient"/>
    <linearGradient id="linear-gradient-7" x1="-864.18" y1="646.67" x2="1977.36" y2="-1259.56" xlink:href="#linear-gradient"/>
    <linearGradient id="linear-gradient-8" x1="-846.63" y1="672.72" x2="1994.75" y2="-1233.41" xlink:href="#linear-gradient"/>
    <linearGradient id="linear-gradient-9" x1="-829.08" y1="698.89" x2="2012.3" y2="-1207.24" xlink:href="#linear-gradient"/>
    <linearGradient id="linear-gradient-10" x1="-811.44" y1="725.12" x2="2029.86" y2="-1180.95" xlink:href="#linear-gradient"/>
    <linearGradient id="linear-gradient-11" x1="-855.55" y1="659.5" x2="1985.94" y2="-1246.7" xlink:href="#linear-gradient"/>
    <linearGradient id="linear-gradient-12" x1="-838.04" y1="685.58" x2="2003.4" y2="-1220.59" xlink:href="#linear-gradient"/>
    <linearGradient id="linear-gradient-13" x1="-820.41" y1="711.81" x2="2020.97" y2="-1194.31" xlink:href="#linear-gradient"/>
    <linearGradient id="linear-gradient-14" x1="-802.85" y1="737.98" x2="2038.52" y2="-1168.14" xlink:href="#linear-gradient"/>
    <linearGradient id="linear-gradient-15" x1="-785.28" y1="764.14" x2="2056.05" y2="-1141.96" xlink:href="#linear-gradient"/>
    <linearGradient id="linear-gradient-16" x1="-829.32" y1="698.46" x2="2011.96" y2="-1207.59" xlink:href="#linear-gradient"/>
    <linearGradient id="linear-gradient-17" x1="-811.86" y1="724.58" x2="2029.56" y2="-1181.57" xlink:href="#linear-gradient"/>
    <linearGradient id="linear-gradient-18" x1="-794.29" y1="750.73" x2="2047.08" y2="-1155.39" xlink:href="#linear-gradient"/>
    <linearGradient id="linear-gradient-19" x1="-776.67" y1="776.98" x2="2064.67" y2="-1129.13" xlink:href="#linear-gradient"/>
    <linearGradient id="linear-gradient-20" x1="-759.16" y1="803.17" x2="2082.31" y2="-1103.01" xlink:href="#linear-gradient"/>
    <linearGradient id="linear-gradient-21" x1="-803.17" y1="737.48" x2="2038.18" y2="-1168.62" xlink:href="#linear-gradient"/>
    <linearGradient id="linear-gradient-22" x1="-785.64" y1="763.66" x2="2055.78" y2="-1142.48" xlink:href="#linear-gradient"/>
    <linearGradient id="linear-gradient-23" x1="-768.14" y1="789.75" x2="2073.28" y2="-1116.4" xlink:href="#linear-gradient"/>
    <linearGradient id="linear-gradient-24" x1="-750.59" y1="815.92" x2="2090.83" y2="-1090.23" xlink:href="#linear-gradient"/>
    <linearGradient id="linear-gradient-25" x1="-733.02" y1="842.2" x2="2108.52" y2="-1064.04" xlink:href="#linear-gradient"/>
    <linearGradient id="linear-gradient-26" x1="-777.07" y1="776.42" x2="2064.31" y2="-1129.7" xlink:href="#linear-gradient"/>
    <linearGradient id="linear-gradient-27" x1="-759.47" y1="802.67" x2="2081.94" y2="-1103.48" xlink:href="#linear-gradient"/>
    <linearGradient id="linear-gradient-28" x1="-741.97" y1="828.76" x2="2099.45" y2="-1077.39" xlink:href="#linear-gradient"/>
    <linearGradient id="linear-gradient-29" x1="-724.42" y1="854.93" x2="2117" y2="-1051.23" xlink:href="#linear-gradient"/>
    <linearGradient id="linear-gradient-30" x1="-706.85" y1="881.2" x2="2134.69" y2="-1025.03" xlink:href="#linear-gradient"/>
  </defs>
  <g id="Layer_2" data-name="Layer 2">
    <rect class="cls-5" x="0" y="0" width="256" height="256"/>
  </g>
  <g id="Layer_1" data-name="Layer 1" class="cls-11">
    <g class="cls-3">
      <rect class="cls-1" x="0" y="0" width="256" height="256" rx="78.28" ry="78.28"/>
      <path class="cls-2" d="M4.54,40.23C1.82,36.45,.46,31.4,.46,25.07S1.82,13.69,4.54,9.91c2.72-3.78,6.83-5.66,12.31-5.66s9.59,1.89,12.31,5.66c2.73,3.78,4.09,8.83,4.09,15.16s-1.36,11.38-4.09,15.16c-2.72,3.78-6.82,5.67-12.31,5.67s-9.59-1.89-12.31-5.67ZM9.4,14.2c-1.59,2.76-2.39,6.38-2.39,10.87s.79,8.11,2.39,10.87c1.59,2.76,4.07,4.14,7.45,4.14s5.84-1.37,7.39-4.11c1.55-2.74,2.33-6.37,2.33-10.9s-.77-8.16-2.33-10.9c-1.55-2.74-4.02-4.11-7.39-4.11s-5.86,1.38-7.45,4.14Z"/>
      <path class="cls-30" d="M222.84,42.19c-3.03-4.2-4.54-9.82-4.54-16.86s1.51-12.66,4.54-16.86c3.03-4.2,7.59-6.3,13.69-6.3s10.67,2.1,13.69,6.3c3.03,4.2,4.54,9.82,4.54,16.86s-1.51,12.66-4.54,16.86c-3.03,4.2-7.59,6.3-13.69,6.3s-10.66-2.1-13.69-6.3Zm5.41-28.96c-1.77,3.07-2.66,7.1-2.66,12.09s.88,9.02,2.66,12.09c1.77,3.07,4.53,4.6,8.28,4.6s6.5-1.52,8.22-4.57c1.73-3.05,2.59-7.09,2.59-12.13s-.86-9.07-2.59-12.13c-1.73-3.05-4.47-4.57-8.22-4.57s-6.52,1.54-8.28,4.6Z"/>
      <path class="cls-29" d="M4.13,102.98h15.16v41.71h-6.69v-35.45H4.13v-6.27Z"/>
      <path class="cls-34" d="M.14,208.05H16.4v44.73h-7.17v-38.01H.14v-6.72Z"/>
      <path class="cls-35" d="M237.81,247.28c-3.03-4.2-4.54-9.82-4.54-16.86s1.51-12.66,4.54-16.86c3.03-4.2,7.59-6.3,13.69-6.3s10.67,2.1,13.69,6.3c3.03,4.2,4.54,9.82,4.54,16.86s-1.51,12.66-4.54,16.86c-3.03,4.2-7.59,6.3-13.69,6.3s-10.66-2.1-13.69-6.3Zm5.41-28.96c-1.77,3.07-2.66,7.1-2.66,12.09s.88,9.02,2.66,12.09c1.77,3.07,4.53,4.6,8.28,4.6s6.5-1.52,8.22-4.57c1.73-3.05,2.59-7.09,2.59-12.13s-.86-9.07-2.59-12.13c-1.73-3.05-4.47-4.57-8.22-4.57s-6.52,1.54-8.28,4.6Z"/>
      <path class="cls-33" d="M12.02,23.94c-1.23-1.71-1.85-3.99-1.85-6.86s.62-5.15,1.85-6.86c1.23-1.71,3.09-2.56,5.57-2.56s4.34,.85,5.57,2.56c1.23,1.71,1.85,3.99,1.85,6.86s-.62,5.15-1.85,6.86c-1.23,1.71-3.09,2.56-5.57,2.56s-4.34-.85-5.57-2.56Zm2.2-11.77c-.72,1.25-1.08,2.89-1.08,4.92s.36,3.67,1.08,4.92c.72,1.25,1.84,1.87,3.37,1.87s2.64-.62,3.34-1.86c.7-1.24,1.05-2.88,1.05-4.93s-.35-3.69-1.05-4.93c-.7-1.24-1.82-1.86-3.34-1.86s-2.65,.62-3.37,1.87Z"/>
      <path class="cls-31" d="M70.68,7.66h6.93V26.74h-3.06V10.53h-3.87v-2.87Z"/>
      <path class="cls-32" d="M124.73,24.43c-1.32-1.83-1.98-4.29-1.98-7.36s.66-5.52,1.98-7.36c1.32-1.83,3.31-2.75,5.97-2.75s4.65,.92,5.98,2.75c1.32,1.83,1.98,4.29,1.98,7.36s-.66,5.52-1.98,7.36c-1.32,1.83-3.31,2.75-5.98,2.75s-4.65-.92-5.97-2.75Zm2.36-12.64c-.77,1.34-1.16,3.1-1.16,5.28s.38,3.94,1.16,5.28c.77,1.34,1.98,2.01,3.62,2.01s2.84-.66,3.59-2c.75-1.33,1.13-3.09,1.13-5.29s-.38-3.96-1.13-5.29c-.75-1.33-1.95-2-3.59-2s-2.84,.67-3.62,2.01Z"/>
      <path class="cls-15" d="M181.29,24.43c-1.32-1.83-1.98-4.29-1.98-7.36s.66-5.52,1.98-7.36c1.32-1.83,3.31-2.75,5.97-2.75s4.65,.92,5.98,2.75c1.32,1.83,1.98,4.29,1.98,7.36s-.66,5.52-1.98,7.36c-1.32,1.83-3.31,2.75-5.98,2.75s-4.65-.92-5.97-2.75Zm2.36-12.64c-.77,1.34-1.16,3.1-1.16,5.28s.38,3.94,1.16,5.28c.77,1.34,1.98,2.01,3.62,2.01s2.84-.66,3.59-2c.75-1.33,1.13-3.09,1.13-5.29s-.38-3.96-1.13-5.29c-.75-1.33-1.95-2-3.59-2s-2.84,.67-3.62,2.01Z"/>
      <path class="cls-28" d="M240.16,7.11h7.33V27.29h-3.23V10.14h-4.1v-3.03Z"/>
      <path class="cls-24" d="M14.36,64.89h6.45v17.75h-2.84v-15.08h-3.6v-2.67Z"/>
      <path class="cls-10" d="M68.51,80.58c-1.25-1.73-1.87-4.04-1.87-6.94s.62-5.21,1.87-6.94c1.25-1.73,3.12-2.59,5.64-2.59s4.39,.86,5.64,2.59c1.25,1.73,1.87,4.04,1.87,6.94s-.62,5.21-1.87,6.94c-1.25,1.73-3.12,2.59-5.64,2.59s-4.39-.86-5.64-2.59Zm2.23-11.92c-.73,1.26-1.09,2.92-1.09,4.98s.36,3.71,1.09,4.98c.73,1.26,1.86,1.9,3.41,1.9s2.67-.63,3.38-1.88c.71-1.26,1.07-2.92,1.07-4.99s-.36-3.73-1.07-4.99c-.71-1.26-1.84-1.88-3.38-1.88s-2.68,.63-3.41,1.9Z"/>
      <path class="cls-7" d="M127.28,64.33h6.85v18.85h-3.02v-16.02h-3.83v-2.83Z"/>
      <path class="cls-22" d="M183.84,64.33h6.85v18.85h-3.02v-16.02h-3.83v-2.83Z"/>
      <path class="cls-18" d="M240.24,63.89h7.17v19.74h-3.16v-16.77h-4.01v-2.97Z"/>
      <path class="cls-8" d="M14.44,121.67h6.29v17.3h-2.77v-14.7h-3.51v-2.6Z"/>
      <path class="cls-6" d="M68.58,137.06c-1.23-1.71-1.85-3.99-1.85-6.86s.62-5.15,1.85-6.86c1.23-1.71,3.09-2.56,5.57-2.56s4.34,.85,5.57,2.56c1.23,1.71,1.85,3.99,1.85,6.86s-.62,5.15-1.85,6.86c-1.23,1.71-3.09,2.56-5.57,2.56s-4.34-.85-5.57-2.56Zm2.2-11.77c-.72,1.25-1.08,2.89-1.08,4.92s.36,3.67,1.08,4.92c.72,1.25,1.84,1.87,3.37,1.87s2.64-.62,3.34-1.86c.7-1.24,1.05-2.88,1.05-4.93s-.35-3.69-1.05-4.93c-.7-1.24-1.82-1.86-3.34-1.86s-2.65,.62-3.37,1.87Z"/>
      <path class="cls-12" d="M125.01,137.22c-1.26-1.75-1.89-4.09-1.89-7.02s.63-5.27,1.89-7.02c1.26-1.75,3.16-2.62,5.7-2.62s4.44,.88,5.7,2.62c1.26,1.75,1.89,4.09,1.89,7.02s-.63,5.27-1.89,7.02c-1.26,1.75-3.16,2.63-5.7,2.63s-4.44-.88-5.7-2.63Zm2.25-12.06c-.74,1.28-1.11,2.96-1.11,5.04s.37,3.76,1.11,5.04c.74,1.28,1.89,1.92,3.45,1.92s2.71-.63,3.43-1.9c.72-1.27,1.08-2.95,1.08-5.05s-.36-3.78-1.08-5.05c-.72-1.27-1.86-1.9-3.43-1.9s-2.71,.64-3.45,1.92Z"/>
      <path class="cls-26" d="M183.88,121.01h6.77v18.63h-2.99v-15.83h-3.78v-2.8Z"/>
      <path class="cls-19" d="M240.32,120.67h7.01v19.3h-3.09v-16.4h-3.92v-2.9Z"/>
      <path class="cls-20" d="M14.48,178.34h6.21v17.08h-2.74v-14.51h-3.47v-2.57Z"/>
      <path class="cls-16" d="M70.88,177.9h6.53v17.97h-2.88v-15.27h-3.65v-2.7Z"/>
      <path class="cls-9" d="M125.14,193.62c-1.23-1.71-1.85-3.99-1.85-6.86s.62-5.15,1.85-6.86c1.23-1.71,3.09-2.56,5.57-2.56s4.34,.85,5.57,2.56c1.23,1.71,1.85,3.99,1.85,6.86s-.62,5.15-1.85,6.86c-1.23,1.71-3.09,2.56-5.57,2.56s-4.34-.85-5.57-2.56Zm2.2-11.77c-.72,1.25-1.08,2.89-1.08,4.92s.36,3.67,1.08,4.92c.72,1.25,1.84,1.87,3.37,1.87s2.64-.62,3.34-1.86c.7-1.24,1.05-2.88,1.05-4.93s-.35-3.69-1.05-4.93c-.7-1.24-1.82-1.86-3.34-1.86s-2.65,.62-3.37,1.87Z"/>
      <path class="cls-25" d="M181.7,193.62c-1.23-1.71-1.85-3.99-1.85-6.86s.62-5.15,1.85-6.86c1.23-1.71,3.09-2.56,5.57-2.56s4.34,.85,5.57,2.56c1.23,1.71,1.85,3.99,1.85,6.86s-.62,5.15-1.85,6.86c-1.23,1.71-3.09,2.56-5.57,2.56s-4.34-.85-5.57-2.56Zm2.2-11.77c-.72,1.25-1.08,2.89-1.08,4.92s.36,3.67,1.08,4.92c.72,1.25,1.84,1.87,3.37,1.87s2.64-.62,3.34-1.86c.7-1.24,1.05-2.88,1.05-4.93s-.35-3.69-1.05-4.93c-.7-1.24-1.82-1.86-3.34-1.86s-2.65,.62-3.37,1.87Z"/>
      <path class="cls-17" d="M240.36,177.34h6.93v19.08h-3.06v-16.21h-3.87v-2.87Z"/>
      <path class="cls-27" d="M12.36,249.77c-1.16-1.6-1.74-3.75-1.74-6.44s.58-4.83,1.74-6.44c1.16-1.6,2.9-2.41,5.23-2.41s4.07,.8,5.23,2.41c1.16,1.6,1.73,3.75,1.73,6.44s-.58,4.83-1.73,6.44c-1.16,1.6-2.9,2.41-5.23,2.41s-4.07-.8-5.23-2.41Zm2.06-11.06c-.68,1.17-1.01,2.71-1.01,4.62s.34,3.44,1.01,4.62c.68,1.17,1.73,1.76,3.16,1.76s2.48-.58,3.14-1.75c.66-1.16,.99-2.71,.99-4.63s-.33-3.47-.99-4.63c-.66-1.16-1.71-1.75-3.14-1.75s-2.49,.59-3.16,1.76Z"/>
      <path class="cls-23" d="M70.88,234.46h6.53v17.97h-2.88v-15.27h-3.65v-2.7Z"/>
      <path class="cls-14" d="M125.14,250.18c-1.23-1.71-1.85-3.99-1.85-6.86s.62-5.15,1.85-6.86c1.23-1.71,3.09-2.56,5.57-2.56s4.34,.85,5.57,2.56c1.23,1.71,1.85,3.99,1.85,6.86s-.62,5.15-1.85,6.86c-1.23,1.71-3.09,2.56-5.57,2.56s-4.34-.85-5.57-2.56Zm2.2-11.77c-.72,1.25-1.08,2.89-1.08,4.92s.36,3.67,1.08,4.92c.72,1.25,1.84,1.87,3.37,1.87s2.64-.62,3.34-1.86c.7-1.24,1.05-2.88,1.05-4.93s-.35-3.69-1.05-4.93c-.7-1.24-1.82-1.86-3.34-1.86s-2.65,.62-3.37,1.87Z"/>
      <path class="cls-13" d="M181.7,250.18c-1.23-1.71-1.85-3.99-1.85-6.86s.62-5.15,1.85-6.86c1.23-1.71,3.09-2.56,5.57-2.56s4.34,.85,5.57,2.56c1.23,1.71,1.85,3.99,1.85,6.86s-.62,5.15-1.85,6.86c-1.23,1.71-3.09,2.56-5.57,2.56s-4.34-.85-5.57-2.56Zm2.2-11.77c-.72,1.25-1.08,2.89-1.08,4.92s.36,3.67,1.08,4.92c.72,1.25,1.84,1.87,3.37,1.87s2.64-.62,3.34-1.86c.7-1.24,1.05-2.88,1.05-4.93s-.35-3.69-1.05-4.93c-.7-1.24-1.82-1.86-3.34-1.86s-2.65,.62-3.37,1.87Z"/>
      <path class="cls-21" d="M240.36,233.9h6.93v19.08h-3.06v-16.21h-3.87v-2.87Z"/>
    </g>
  </g>
  <g id="Layer_3" data-name="Layer 3">
    <g>
      <path class="cls-4" d="M126.92,97.29c5.34,0,11.23,.73,16.11,5.06,5.24,4.61,5.98,10.68,5.98,14.92,0,7.73-2.95,12.06-5.25,14.45-4.88,4.97-11.32,5.43-15.65,5.43h-8.65v21.55h-14.18v-61.41h21.64Zm-7.46,28.26h5.06c1.93,0,5.34-.09,7.64-2.29,1.29-1.29,2.31-3.41,2.31-6.08s-.92-4.69-2.31-5.98c-2.11-2.02-5.15-2.29-7.92-2.29h-4.78v16.65Z"/>
      <path class="cls-4" d="M204.98,109.26v49.45h-14.18v-49.45h-13.35v-11.97h40.88v11.97h-13.35Z"/>
      <path class="cls-4" d="M72.37,109.26h-20.52v11.89h19.51v11.97h-19.51v13.63h20.52v11.97H37.67v-61.41h34.7v11.97Z"/>
    </g>
  </g>
</svg>